<svg aria-hidden="true" viewBox="0 0 32 32" fill="none" class="CDS_Icon_icon__70b220 CDS_Icon_default__70b220" xmlns="http://www.w3.org/2000/svg" width="34px" height="34px" role="img"><path fill-rule="evenodd" clip-rule="evenodd" d="M15.9999 13.5972C15.4978 13.5972 15.0061 13.725 14.5746 13.9656C14.1433 14.2061 13.7889 14.55 13.5446 14.9598L13.5384 14.9701L8.99188 22.3395C8.71517 22.787 8.58054 23.3003 8.6022 23.8162C8.62386 24.3322 8.80072 24.8336 9.11487 25.2592C9.42929 25.6852 9.86845 26.0178 10.3817 26.2123C10.8951 26.407 11.4576 26.4538 11.9995 26.3463L12.0029 26.3457L15.3911 25.6886C15.8106 25.6098 16.2417 25.6098 16.6612 25.6886L16.6681 25.6899L20.0005 26.3463C20.5424 26.4538 21.1049 26.407 21.6183 26.2123C22.1316 26.0178 22.5707 25.6852 22.8851 25.2592C23.1993 24.8336 23.3761 24.3322 23.3978 23.8162C23.4195 23.3003 23.2853 22.7877 23.0085 22.3401L18.4552 14.9598C18.2108 14.55 17.8567 14.2061 17.4254 13.9656C16.994 13.725 16.5021 13.5972 15.9999 13.5972ZM13.7943 12.5712C14.4664 12.1963 15.2271 12 15.9999 12C16.7728 12 17.5336 12.1963 18.2057 12.5712C18.8761 12.9451 19.4361 13.4842 19.8268 14.1373L24.37 21.5012V21.5012C24.8128 22.2175 25.0315 23.0454 24.9963 23.8831C24.9612 24.721 24.6739 25.5282 24.1732 26.2067C23.6727 26.8848 22.9814 27.4042 22.1863 27.7056C21.3915 28.0068 20.5243 28.0786 19.6893 27.9131V27.9131L16.3622 27.2577C16.1399 27.2163 15.9113 27.2164 15.6891 27.2579L15.687 27.2583L12.3113 27.9129L12.3097 27.9133C11.475 28.0785 10.6082 28.0067 9.81374 27.7056C9.01858 27.4042 8.32729 26.8848 7.82682 26.2067C7.32607 25.5282 7.03884 24.721 7.00367 23.8831C6.9685 23.0454 7.187 22.2178 7.62983 21.5015V21.5015L12.173 14.1373C12.5638 13.4842 13.1239 12.945 13.7943 12.5712Z" fill="#1B1B21"/><path fill-rule="evenodd" clip-rule="evenodd" d="M12 5.57391C11.297 5.57391 10.4392 6.46294 10.4392 8C10.4392 9.53705 11.297 10.4261 12 10.4261C12.703 10.4261 13.5608 9.53705 13.5608 8C13.5608 6.46294 12.703 5.57391 12 5.57391ZM9 8C9 5.98803 10.1842 4 12 4C13.8158 4 15 5.98803 15 8C15 10.012 13.8158 12 12 12C10.1842 12 9 10.012 9 8Z" fill="#1B1B21"/><path fill-rule="evenodd" clip-rule="evenodd" d="M6 12.5739C5.29698 12.5739 4.43918 13.4629 4.43918 15C4.43918 16.5371 5.29698 17.4261 6 17.4261C6.70303 17.4261 7.56082 16.5371 7.56082 15C7.56082 13.4629 6.70303 12.5739 6 12.5739ZM3 15C3 12.988 4.18415 11 6 11C7.81585 11 9 12.988 9 15C9 17.012 7.81585 19 6 19C4.18415 19 3 17.012 3 15Z" fill="#1B1B21"/><path fill-rule="evenodd" clip-rule="evenodd" d="M20 5.57391C19.297 5.57391 18.4392 6.46294 18.4392 8C18.4392 9.53706 19.297 10.4261 20 10.4261C20.703 10.4261 21.5608 9.53706 21.5608 8C21.5608 6.46294 20.703 5.57391 20 5.57391ZM17 8C17 5.98803 18.1842 4 20 4C21.8158 4 23 5.98803 23 8C23 10.012 21.8158 12 20 12C18.1842 12 17 10.012 17 8Z" fill="#1B1B21"/><path fill-rule="evenodd" clip-rule="evenodd" d="M26 12.5739C25.297 12.5739 24.4392 13.4629 24.4392 15C24.4392 16.5371 25.297 17.4261 26 17.4261C26.703 17.4261 27.5608 16.5371 27.5608 15C27.5608 13.4629 26.703 12.5739 26 12.5739ZM23 15C23 12.988 24.1842 11 26 11C27.8158 11 29 12.988 29 15C29 17.012 27.8158 19 26 19C24.1842 19 23 17.012 23 15Z" fill="#1B1B21"/></svg>